<svg xmlns:mydata="http://www.w3.org/2000/svg" mydata:contrastcolor="240a0f" mydata:template="Contrast" mydata:presentation="2.5" mydata:layouttype="undefined" mydata:specialfontid="undefined" mydata:id1="468" mydata:id2="469" mydata:companyname="Todo App" xmlns="http://www.w3.org/2000/svg" viewBox="0 0 550 470"><defs><linearGradient x1="98.181" y1="235" x2="451.819" y2="235" gradientUnits="userSpaceOnUse" id="a"><stop offset="0" stop-color="#ed4264"/><stop offset="1" stop-color="#ffedbc"/></linearGradient></defs><g data-paper-data="{&quot;isGlobalGroup&quot;:true,&quot;bounds&quot;:{&quot;x&quot;:98.18114950393426,&quot;y&quot;:167.38126231438332,&quot;width&quot;:353.63770099213144,&quot;height&quot;:135.23747537123336}}" fill="url(#a)" stroke-miterlimit="10" font-family="none" font-weight="none" font-size="none" text-anchor="none" style="mix-blend-mode:normal"><g data-paper-data="{&quot;isSecondaryText&quot;:true}"><path d="M212.81 277.47v25.149h-2.641v-7.336h-11.134c-.15 0-.449.265-.897.794-.104.08-2.284 2.261-6.542 6.542h-3.694v-.052c13.406-13.556 21.708-21.921 24.907-25.097zm-11.272 15.155v.051h8.63v-8.768a932.638 932.638 0 0 0-8.63 8.717z" data-paper-data="{&quot;glyphName&quot;:&quot;A&quot;,&quot;glyphIndex&quot;:0,&quot;firstGlyphOfWord&quot;:true,&quot;word&quot;:1}"/><path d="M265.413 277.884h13.55c4.58 0 7.675 2.146 9.286 6.438.3 1.116.449 2.094.449 2.934v.725c0 2.762-1.082 5.167-3.245 7.216-1.773 1.438-3.729 2.157-5.87 2.157H268.14v5.265h-2.727zm2.727 2.727v14.016h11.289c2.692 0 4.683-1.306 5.972-3.918.38-1.07.57-1.98.57-2.728v-.673c0-1.979-.823-3.745-2.469-5.299-1.266-.932-2.727-1.398-4.384-1.398z" data-paper-data="{&quot;glyphName&quot;:&quot;P&quot;,&quot;glyphIndex&quot;:1,&quot;word&quot;:1}"/><path d="M338.813 277.884h13.55c4.58 0 7.675 2.146 9.286 6.438.3 1.116.449 2.094.449 2.934v.725c0 2.762-1.082 5.167-3.245 7.216-1.772 1.438-3.728 2.157-5.869 2.157H341.54v5.265h-2.727zm2.727 2.727v14.016h11.289c2.693 0 4.683-1.306 5.972-3.918.38-1.07.57-1.98.57-2.728v-.673c0-1.979-.823-3.745-2.468-5.299-1.266-.932-2.728-1.398-4.385-1.398z" data-paper-data="{&quot;glyphName&quot;:&quot;P&quot;,&quot;glyphIndex&quot;:2,&quot;lastGlyphOfWord&quot;:true,&quot;word&quot;:1}"/></g><g data-paper-data="{&quot;isPrimaryText&quot;:true}"><path d="M98.181 170.406h71.623v14.941h-28.431v71.623h-14.76v-71.623H98.18z" data-paper-data="{&quot;glyphName&quot;:&quot;T&quot;,&quot;glyphIndex&quot;:0,&quot;firstGlyphOfWord&quot;:true,&quot;word&quot;:1}"/><path d="M214.931 167.381h.363c13.631 0 25.407 5.606 35.328 16.817 7.017 8.751 10.525 18.591 10.525 29.52v.182c0 11.655-4.194 22.16-12.582 31.516-9.8 9.679-21.011 14.518-33.634 14.518-13.106 0-24.52-5.08-34.238-15.244-8.066-9.194-12.099-19.559-12.099-31.093 0-12.098 4.436-22.906 13.308-32.424 9.397-9.194 20.406-13.792 33.03-13.792zm-31.274 45.49v1.21c0 10.203 4.658 18.773 13.973 25.71 5.566 3.387 11.171 5.08 16.817 5.08h1.21c6.695 0 13.107-2.379 19.237-7.137 7.581-6.856 11.372-14.902 11.372-24.137 0-10.404-4.658-19.095-13.974-26.072-5.726-3.508-11.513-5.263-17.36-5.263-8.107 0-15.386 2.964-21.838 8.893-6.292 6.573-9.437 13.812-9.437 21.716z" data-paper-data="{&quot;glyphName&quot;:&quot;O&quot;,&quot;glyphIndex&quot;:1,&quot;word&quot;:1}"/><path d="M270.826 170.406h40.65c13.712 0 24.621 5.686 32.727 17.059 5.202 7.904 7.804 16.635 7.804 26.193 0 13.994-5.223 25.649-15.668 34.964-3.871 2.702-7.4 4.678-10.586 5.929a46.944 46.944 0 0 1-14.942 2.42h-39.985zm14.76 15.123v56.318c.04.242.161.363.363.363h23.29c8.831 0 15.486-2.44 19.962-7.32 5.243-5.726 7.864-12.562 7.864-20.506v-1.029c0-7.864-2.38-14.598-7.138-20.204-4.8-5.323-11.352-7.985-19.66-7.985h-24.318c-.242.04-.363.161-.363.363z" data-paper-data="{&quot;glyphName&quot;:&quot;D&quot;,&quot;glyphIndex&quot;:2,&quot;word&quot;:1}"/><path d="M405.603 167.381h.363c13.63 0 25.406 5.606 35.327 16.817 7.017 8.751 10.526 18.591 10.526 29.52v.182c0 11.655-4.194 22.16-12.583 31.516-9.8 9.679-21.01 14.518-33.633 14.518-13.107 0-24.52-5.08-34.239-15.244-8.065-9.194-12.098-19.559-12.098-31.093 0-12.098 4.436-22.906 13.308-32.424 9.396-9.194 20.406-13.792 33.029-13.792zm-31.275 45.49v1.21c0 10.203 4.658 18.773 13.974 25.71 5.565 3.387 11.17 5.08 16.817 5.08h1.21c6.694 0 13.106-2.379 19.236-7.137 7.582-6.856 11.373-14.902 11.373-24.137 0-10.404-4.658-19.095-13.974-26.072-5.727-3.508-11.514-5.263-17.361-5.263-8.106 0-15.385 2.964-21.838 8.893-6.291 6.573-9.437 13.812-9.437 21.716z" data-paper-data="{&quot;glyphName&quot;:&quot;O&quot;,&quot;glyphIndex&quot;:3,&quot;lastGlyphOfWord&quot;:true,&quot;word&quot;:1}"/></g></g><path data-path-id="path-id-33851" class="invisible-bbox" fill="transparent" d="M169 167h93v93h-93z"/><path data-path-id="path-id-38774" class="invisible-bbox" fill="transparent" d="M359 167h93v93h-93z"/><path data-path-id="path-id-75369" class="invisible-bbox" fill="transparent" d="M271 170h81v87h-81z"/><path data-path-id="path-id-33319" class="invisible-bbox" fill="transparent" d="M98 170h72v87H98z"/><path data-path-id="path-id-93426" class="invisible-bbox" fill="transparent" d="M188 277h25v25h-25z"/><path data-path-id="path-id-92533" class="invisible-bbox" fill="transparent" d="M265 278h23v25h-23z"/><path data-path-id="path-id-16613" class="invisible-bbox" fill="transparent" d="M339 278h23v25h-23z"/></svg>
