<?xml version="1.0" encoding="UTF-8"?>
<svg width="628px" height="819px" viewBox="0 0 628 819" version="1.1" xmlns="http://www.w3.org/2000/svg" xmlns:xlink="http://www.w3.org/1999/xlink">
    <!-- Generator: Sketch 61.2 (89653) - https://sketch.com -->
    <title>Group</title>
    <desc>Created with Sketch.</desc>
    <g id="Page-1" stroke="none" stroke-width="1" fill="none" fill-rule="evenodd">
        <g id="Group" fill="currentColor" fill-rule="nonzero">
            <g transform="translate(0.000000, 409.000000)">
                <g transform="translate(0.000000, 224.000000)">
                    <path d="M607,185.1 L21,185.1 C9.4,185.1 0,175.7 0,164.1 L0,21.7 C0,10.1 9.4,0.7 21,0.7 L607,0.7 C618.6,0.7 628,10.1 628,21.7 L628,164.1 C628,175.7 618.6,185.1 607,185.1 Z M42,143.1 L586,143.1 L586,42.7 L42,42.7 L42,143.1 Z" id="Shape"></path>
                    <g transform="translate(93.000000, 71.000000)" id="Oval">
                        <circle cx="21.8" cy="21.9" r="21.4"></circle>
                        <circle cx="105.6" cy="21.9" r="21.4"></circle>
                        <circle cx="189.4" cy="21.9" r="21.4"></circle>
                        <circle cx="273.2" cy="21.9" r="21.4"></circle>
                        <circle cx="357.1" cy="21.9" r="21.4"></circle>
                    </g>
                </g>
                <path d="M607,184.9 L21,184.9 C9.4,184.9 0,175.5 0,163.9 L0,21.5 C0,9.9 9.4,0.5 21,0.5 L607,0.5 C618.6,0.5 628,9.9 628,21.5 L628,163.9 C628,175.5 618.6,184.9 607,184.9 Z M42,142.9 L586,142.9 L586,42.5 L42,42.5 L42,142.9 Z" id="Shape"></path>
                <path d="M527.1,113.7 L100.9,113.7 C89.3,113.7 79.9,104.3 79.9,92.7 C79.9,81.1 89.3,71.7 100.9,71.7 L527.1,71.7 C538.7,71.7 548.1,81.1 548.1,92.7 C548.1,104.3 538.7,113.7 527.1,113.7 Z" id="Path"></path>
            </g>
            <g transform="translate(129.000000, 0.000000)">
                <path d="M185,369.7 C83.3,369.7 0.6,287 0.6,185.3 C0.6,83.6 83.3,0.9 185,0.9 C286.7,0.9 369.4,83.6 369.4,185.3 C369.4,287 286.7,369.7 185,369.7 Z M185,42.9 C106.5,42.9 42.6,106.8 42.6,185.3 C42.6,263.8 106.5,327.7 185,327.7 C263.5,327.7 327.4,263.8 327.4,185.3 C327.4,106.8 263.5,42.9 185,42.9 Z" id="Shape"></path>
                <g transform="translate(53.000000, 80.000000)">
                    <path d="M242.1,247 C232.4,247 223.7,240.3 221.6,230.5 C213.7,194.2 180.9,167.8 143.6,167.8 L120.4,167.8 C83.1,167.8 50.4,194.2 42.4,230.5 C39.9,241.8 28.7,249 17.4,246.5 C6.1,244 -1.1,232.8 1.4,221.5 C7.2,194.8 22.2,170.5 43.5,153.1 C65.1,135.5 92.4,125.8 120.4,125.8 L143.6,125.8 C171.6,125.8 198.9,135.5 220.5,153.1 C241.8,170.5 256.8,194.8 262.6,221.5 C265.1,232.8 257.9,244 246.6,246.5 C245,246.9 243.5,247 242.1,247 Z" id="Path"></path>
                    <path d="M132,167.8 C85.7,167.8 48.1,130.2 48.1,83.9 C48.1,37.6 85.7,0 132,0 C178.3,0 215.9,37.6 215.9,83.9 C215.9,130.2 178.3,167.8 132,167.8 Z M132,42 C108.9,42 90.1,60.8 90.1,83.9 C90.1,107 108.9,125.8 132,125.8 C155.1,125.8 173.9,107 173.9,83.9 C173.9,60.8 155.1,42 132,42 Z" id="Shape"></path>
                </g>
            </g>
        </g>
    </g>
</svg>