<?xml version="1.0" encoding="UTF-8"?>
<svg width="46px" height="50px" viewBox="0 0 46 50" version="1.1" xmlns="http://www.w3.org/2000/svg" xmlns:xlink="http://www.w3.org/1999/xlink">
    <!-- Generator: Sketch 61.2 (89653) - https://sketch.com -->
    <title>Shape</title>
    <desc>Created with Sketch.</desc>
    <g id="Page-1" stroke="none" stroke-width="1" fill="none" fill-rule="evenodd">
        <path d="M44.91,5 C44.4383357,4.7203488 43.8516643,4.7203488 43.38,5 C37.4676433,8.31661591 30.1768559,7.94721601 24.63,4.05 C13.26,-3.4 1.63,1.68 1.2,1.9 C0.660429749,2.13737052 0.31152592,2.67052694 0.31,3.26 L0.31,48.46 C0.31,49.2884271 0.981572893,49.96 1.81,49.96 C2.63842711,49.96 3.31,49.2884271 3.31,48.46 L3.31,30.46 C6,29.57 14.66,27.32 23,32.77 C29.5239434,37.3266421 38.0895734,37.7159889 45,33.77 C45.4306503,33.4959246 45.6910202,33.0204664 45.690003,32.51 L45.690003,6.28 C45.6791621,5.74409328 45.3813083,5.25530758 44.91,5 Z M42.69,31.6 C36.8782182,34.491102 29.951468,33.9771571 24.63,30.26 C20.5955702,27.6193992 15.8716564,26.2279666 11.05,26.26 C8.42905248,26.2620693 5.82214253,26.6426647 3.31,27.39 L3.31,4.39 C6.05,3.37 14.7,1.14 23,6.57 C28.7782727,10.5809478 36.1979464,11.3831765 42.7,8.7 L42.69,31.6 Z" id="Shape" fill="currentColor" fill-rule="nonzero"></path>
    </g>
</svg>