<?xml version="1.0" encoding="UTF-8"?>
<svg width="72px" height="54px" viewBox="0 0 72 54" version="1.1" xmlns="http://www.w3.org/2000/svg" xmlns:xlink="http://www.w3.org/1999/xlink">
    <!-- Generator: Sketch 61.2 (89653) - https://sketch.com -->
    <title>Group</title>
    <desc>Created with Sketch.</desc>
    <defs>
        <linearGradient x1="75.2938558%" y1="83.8764111%" x2="8.0086672%" y2="23.9478514%" id="linearGradient-1">
            <stop stop-color="#4B2196" offset="0%"></stop>
            <stop stop-color="#813CFC" offset="6.19227716%"></stop>
            <stop stop-color="#338FFE" offset="20.6925676%"></stop>
            <stop stop-color="#3DDEFF" offset="100%"></stop>
        </linearGradient>
        <linearGradient x1="74.0460594%" y1="7.66410682%" x2="74.0449965%" y2="130.219829%" id="linearGradient-2">
            <stop stop-color="#4B2196" offset="0%"></stop>
            <stop stop-color="#813CFC" offset="6.13122889%"></stop>
            <stop stop-color="#338FFE" offset="22.8171546%"></stop>
            <stop stop-color="#3DDEFF" offset="100%"></stop>
        </linearGradient>
        <linearGradient x1="88.7995597%" y1="51.9520611%" x2="-22.1606496%" y2="66.3654127%" id="linearGradient-3">
            <stop stop-color="#5A66FD" offset="0%"></stop>
            <stop stop-color="#349AFF" offset="24.7228674%"></stop>
            <stop stop-color="#34A1FF" offset="51.6495988%"></stop>
            <stop stop-color="#34F3FF" offset="100%"></stop>
        </linearGradient>
    </defs>
    <g id="Page-1" stroke="none" stroke-width="1" fill="none" fill-rule="evenodd">
        <g id="Desktop-HD-Copy-8" transform="translate(-291.000000, -165.000000)" fill-rule="nonzero">
            <g id="Group-2" transform="translate(277.000000, 142.000000)">
                <g id="Group" transform="translate(14.166667, 23.000000)">
                    <g id="Group-3-Copy-15" transform="translate(0.166667, 0.000000)">
                        <path d="M0.193822758,0.0590932215 L0.456910857,0.0646895288 C2.72976863,0.15797225 4.8049467,1.41008434 5.94427816,3.39305605 L5.94427816,3.39305605 L32.949707,50.3951823 L31.6004414,52.6364298 L30.9460042,52.9898682 L30.2386678,52.4033407 L0.193822758,0.0590932215 Z M7.86172618,0.0747942057 C10.2439409,0.0688335377 12.4464285,1.34071187 13.6319918,3.40696986 L36.7700602,43.733134 L34.8629761,47.0567424 L7.86172618,0.0747942057 Z M15.5356069,0.0537956994 C17.9128801,0.0378709051 20.1155439,1.29993667 21.3039609,3.35890398 L40.6894938,36.9449056 L38.6993612,40.4032186 L15.5356069,0.0537956994 Z" id="Combined-Shape" fill="url(#linearGradient-1)"></path>
                        <path d="M61.2034905,14.462724 L64.0954615,16.1203171 L44.5072857,50.2842627 C43.3443823,52.3124947 41.2207132,53.5912208 38.8965584,53.6799713 L38.6375326,53.6849131 L61.2034905,14.462724 Z M53.5368238,14.462724 L56.4287948,16.1203171 L35.8657237,51.9845879 C35.2627368,53.0362638 34.1431241,53.6849131 32.9308472,53.6849131 L32.56294,53.6849131 C31.6438237,53.6849131 30.7902378,53.226047 30.2820556,52.4704029 L30.1785482,52.3039958 C30.6202257,52.5597195 30.96757,52.6544596 31.2205811,52.5882161 C31.4735921,52.5219727 31.7173145,52.3192435 31.9517481,51.9800288 L53.5368238,14.462724 Z M68.9059477,14.4292453 L70.804551,15.5174691 L70.9241536,17.3197021 L70.6747075,18.0382375 L52.0362523,50.4195594 C50.9165095,52.3649326 48.8781981,53.591616 46.6473209,53.6798129 L46.3890988,53.6849131 L68.9059477,14.4292453 Z" id="Combined-Shape" fill="url(#linearGradient-2)"></path>
                        <path d="M67.0688341,13.3380711 C68.6044217,13.3380711 70.0244523,14.1536831 70.7982065,15.4800818 C71.0174188,15.9496222 71.1147533,16.382938 71.09021,16.7800293 C71.0656667,17.1771206 70.9137705,17.6265699 70.6345215,18.1283773 C70.843004,17.5370551 70.8541802,17.1470676 70.6680501,16.9584147 C70.48192,16.7697618 70.2003784,16.6740917 69.8234253,16.6714044 L69.8234253,16.6714044 L44.4486717,16.6714044 C42.070943,16.6714044 39.8747082,15.4000023 38.6906331,13.3380711 L38.6906331,13.3380711 Z M61.8493696,6.67140444 C64.2249983,6.67140444 66.4188349,7.94319479 67.5993652,10.0047378 L67.5993652,10.0047378 L44.3960588,10.0047378 C42.0182026,10.0047378 39.8218225,8.73335913 38.6375326,6.67140444 L38.6375326,6.67140444 Z M58.02081,0.00473777272 C60.3935794,0.00473777272 62.5841494,1.27705924 63.759847,3.33807111 L63.759847,3.33807111 L44.4061514,3.33807111 C42.0256578,3.33807111 39.8262678,2.06717761 38.6375326,0.00473777272 L38.6375326,0.00473777272 Z" id="Combined-Shape" fill="url(#linearGradient-3)"></path>
                    </g>
                </g>
            </g>
        </g>
    </g>
</svg>