<?xml version="1.0" encoding="UTF-8"?>
<svg width="58px" height="48px" viewBox="0 0 58 48" version="1.1" xmlns="http://www.w3.org/2000/svg" xmlns:xlink="http://www.w3.org/1999/xlink">
    <!-- Generator: Sketch 61.2 (89653) - https://sketch.com -->
    <title>Combined Shape</title>
    <desc>Created with Sketch.</desc>
    <g id="Page-1" stroke="none" stroke-width="1" fill="none" fill-rule="evenodd">
        <path d="M0.376833841,0.711077168 C0.616840277,0.519852528 0.931357478,0.449412491 1.23,0.52 L1.23,0.52 L19.66,4.52 L38.1,0.52 C38.2819102,0.484544379 38.4703096,0.505477647 38.64,0.58 L38.64,0.58 L38.64,0.52 L57.21,4.52 C57.6464961,4.6177074 57.9650181,4.99340013 57.99,5.44 L57.99,5.44 L57.99,46.44 C57.99,46.9922847 57.5422847,47.44 56.99,47.44 L56.99,47.44 L56.78,47.44 L38.35,43.44 L19.91,47.44 L19.7993841,47.4741111 C19.72444,47.4922042 19.6473899,47.5009535 19.57,47.5000673 L19.57,47.5000673 L19.36,47.5000673 L0.79,43.5 C0.320862102,43.3993583 -0.0106736451,42.9796928 -0.000250467919,42.5 L-0.000250467919,42.5 L-0.000250467919,1.5 C-0.00209128434,1.1931359 0.136827405,0.902301808 0.376833841,0.711077168 Z M39.29,2.71 L39.29,19.88 L37.29,19.88 L37.29,2.74 L20.57,6.34 L20.57,34.81 L18.57,34.81 L18.57,6.31 L2,2.74 L2,41.69 L18.57,45.26 L18.57,37.88 L20.57,37.88 L20.57,45.29 L37.29,41.69 L37.29,23.12 L39.29,23.12 L39.29,41.66 L56,45.26 L56,6.31 L39.29,2.71 Z M17.67,35.81 L17.86,37.81 C17.19,37.91 16.48,37.91 15.77,37.91 L14.77,37.91 L14.85,35.91 C15.7911675,35.9359655 16.7330358,35.9025659 17.67,35.81 L17.67,35.81 Z M10.22,22.9999095 C13.0493625,22.9833681 15.3579872,25.2606742 15.38,28.09 C15.38,30.54 11.76,35.85 11.04,36.85 C10.8512778,37.1150724 10.5453865,37.2717484 10.22,37.2700145 C9.89461348,37.2717484 9.58872221,37.1150724 9.4,36.85 C8.67,35.82 5.06,30.54 5.06,28.09 C5.0820128,25.2606742 7.39063746,22.9833681 10.22,22.9999095 Z M23,34.31 L24,36.05 C23.0512531,36.5703067 22.0442454,36.9764665 21,37.26 L21,37.26 L20.44,35.34 C21.330101,35.0962487 22.1891123,34.7506309 23,34.31 L23,34.31 Z M10.22,24.93 C8.47478019,24.93 7.06,26.3447802 7.06,28.09 C7.06,29.22 8.71,32.18 10.22,34.49 C11.73,32.18 13.38,29.22 13.38,28.09 C13.38,26.3447802 11.9652198,24.93 10.22,24.93 Z M26.83,30.47 L28.43,31.67 L27.62,32.77 C27.2791522,33.2425611 26.9012966,33.6872938 26.49,34.1 L26.49,34.1 L25.07,32.69 C25.4093092,32.3491527 25.7203345,31.9812733 26,31.59 L26,31.59 L26.83,30.47 Z M30.82,25.83 L32.23,27.25 C31.59,27.89 30.95,28.59 30.28,29.38 L30.28,29.38 L28.76,28.09 C29.46,27.25 30.14,26.52 30.82,25.83 L30.82,25.83 Z M10.22,27.07 C10.7722847,27.07 11.22,27.5177153 11.22,28.07 C11.22,28.6222847 10.7722847,29.07 10.22,29.07 C9.66771525,29.07 9.22,28.6222847 9.22,28.07 C9.22,27.5177153 9.66771525,27.07 10.22,27.07 Z M35.71,22.06 L36.71,23.82 C35.8899683,24.2697581 35.1074446,24.7847523 34.37,25.36 L34.37,25.36 L33.14,23.78 C33.9547116,23.146332 34.8135545,22.5715422 35.71,22.06 L35.71,22.06 Z M41.69,20 L42,22 C41.0726155,22.1547344 40.159535,22.385513 39.27,22.69 L39.27,22.69 L38.63,20.8 C39.6247022,20.4445546 40.6486104,20.1768662 41.69,20 L41.69,20 Z M47.645,7.8171013 C50.4064712,7.8171013 52.6784625,9.99120469 52.8,12.75 C52.8,15.2 49.19,20.51 48.46,21.51 C48.2712778,21.7750724 47.9653865,21.9317484 47.64,21.9300145 C47.3181426,21.9285117 47.0166758,21.7721956 46.83,21.51 C46.1,20.47 42.49,15.2 42.49,12.75 C42.6115375,9.99120469 44.8835288,7.8171013 47.645,7.8171013 Z M47.64,9.66 C46.8125132,9.65200514 46.0157462,9.97307537 45.4249982,10.552571 C44.8342502,11.1320666 44.4979184,11.9225125 44.49,12.75 C44.49,13.88 46.14,16.84 47.64,19.15 C49.15,16.84 50.8,13.88 50.8,12.75 C50.7780371,11.0252367 49.3648226,9.64332755 47.64,9.66 Z M47.68,11.75 C48.2322847,11.75 48.68,12.1977153 48.68,12.75 C48.68,13.3022847 48.2322847,13.75 47.68,13.75 C47.1277153,13.75 46.68,13.3022847 46.68,12.75 C46.68,12.1977153 47.1277153,11.75 47.68,11.75 Z" id="Combined-Shape" fill="currentColor" fill-rule="nonzero"></path>
    </g>
</svg>