<?xml version="1.0" encoding="UTF-8"?>
<svg width="490px" height="450px" viewBox="0 0 490 450" version="1.1" xmlns="http://www.w3.org/2000/svg" xmlns:xlink="http://www.w3.org/1999/xlink">
    <!-- Generator: Sketch 61.2 (89653) - https://sketch.com -->
    <title>Group</title>
    <desc>Created with Sketch.</desc>
    <g id="Page-1" stroke="none" stroke-width="1" fill="none" fill-rule="evenodd">
        <g id="Group" transform="translate(0.900000, 0.520502)" fill="currentColor" fill-rule="nonzero">
            <path d="M127,63.6794978 C160.8,78.1794978 194.6,92.5794978 228.4,107.079498 C232.8,108.979498 237.3,110.879498 241.7,112.779498 C248,115.479498 252.2,112.779498 257.9,110.379498 C277.8,102.379498 297.7,94.2794978 317.7,86.2794978 C333.7,79.8794978 349.6,73.3794978 365.6,66.9794978 C375.1,63.1794978 375,51.5794978 365.6,47.6794978 C331.8,33.7794978 298,19.9794978 264.3,6.07949782 C259.8,4.17949782 255.1,1.77949782 250.4,0.379497821 C245.8,-1.02050218 241,1.77949782 236.8,3.47949782 C217,11.1794978 197.2,18.9794978 177.4,26.6794978 C161.4,32.9794978 145.4,39.1794978 129.4,45.4794978 C124.4,47.4794978 120.9,52.1794978 122.4,57.7794978 C123.7,62.5794978 129.6,66.7794978 134.7,64.7794978 C168.4,51.4794978 202.1,38.2794978 235.8,25.0794978 C240.6,23.1794978 245.4,21.3794978 250.2,19.4794978 C248.4,19.4794978 246.7,19.4794978 244.9,19.4794978 C278.6,33.2794978 312.3,47.1794978 345.9,60.9794978 C350.7,62.9794978 355.5,64.8794978 360.3,66.8794978 C360.3,60.4794978 360.3,53.9794978 360.3,47.5794978 C326.4,61.2794978 292.6,74.8794978 258.7,88.5794978 C253.9,90.4794978 249,92.4794978 244.2,94.3794978 C246.8,94.6794978 249.3,95.0794978 251.9,95.3794978 C218.4,81.0794978 184.9,66.7794978 151.5,52.3794978 C146.7,50.3794978 142,48.2794978 137.2,46.2794978 C132.2,44.1794978 126.5,44.7794978 123.5,49.8794978 C121,54.1794978 122,61.4794978 127,63.6794978 Z" id="Path"></path>
            <polyline id="Path" points="131.1 55.4794978 131.1 206.979498 247.1 242.779498 247.1 104.479498"></polyline>
            <path d="M120.8,55.6794978 C120.8,99.8794978 120.8,144.179498 120.8,188.379498 C120.8,194.579498 120.8,200.779498 120.8,206.979498 C120.8,211.479498 123.9,215.379498 128.1,216.579498 C162.2,226.979498 196.2,237.479498 230.3,247.879498 C235.1,249.379498 239.9,250.879498 244.8,252.279498 C251,254.179498 257.5,248.979498 257.5,242.679498 C257.5,202.479498 257.5,162.279498 257.5,122.079498 C257.5,116.279498 257.5,110.479498 257.5,104.679498 C257.5,91.7794978 237.5,91.7794978 237.5,104.679498 C237.5,144.879498 237.5,185.079498 237.5,225.279498 C237.5,231.079498 237.5,236.879498 237.5,242.679498 C241.7,239.479498 245.9,236.279498 250.2,233.079498 C216.1,222.679498 182.1,212.179498 148,201.779498 C143.2,200.279498 138.4,198.779498 133.5,197.379498 C135.9,200.579498 138.4,203.779498 140.8,206.979498 C140.8,162.779498 140.8,118.479498 140.8,74.2794978 C140.8,68.0794978 140.8,61.8794978 140.8,55.6794978 C140.8,42.7794978 120.8,42.7794978 120.8,55.6794978 L120.8,55.6794978 Z" id="Path"></path>
            <path d="M372.8,205.979498 C372.8,162.679498 372.8,119.379498 372.8,75.9794978 C372.8,69.8794978 372.8,63.7794978 372.8,57.6794978 C372.8,44.7794978 352.8,44.7794978 352.8,57.6794978 C352.8,100.979498 352.8,144.279498 352.8,187.679498 C352.8,193.779498 352.8,199.879498 352.8,205.979498 C352.8,218.779498 372.8,218.879498 372.8,205.979498 L372.8,205.979498 Z" id="Path"></path>
            <path d="M242.5,259.679498 C276.3,274.179498 310.1,288.579498 343.9,303.079498 C348.3,304.979498 352.8,306.879498 357.2,308.779498 C363.5,311.479498 367.7,308.779498 373.4,306.379498 C393.3,298.379498 413.2,290.279498 433.2,282.279498 C449.2,275.879498 465.1,269.379498 481.1,262.979498 C490.6,259.179498 490.5,247.579498 481.1,243.679498 C447.3,229.779498 413.5,215.979498 379.8,202.079498 C375.3,200.179498 370.6,197.779498 365.9,196.379498 C361.3,194.979498 356.5,197.779498 352.3,199.479498 C332.5,207.179498 312.7,214.979498 292.9,222.679498 C276.9,228.979498 260.9,235.179498 244.9,241.479498 C239.9,243.479498 236.4,248.179498 237.9,253.779498 C239.2,258.579498 245.1,262.779498 250.2,260.779498 C283.9,247.579498 317.6,234.379498 351.3,221.279498 C356.1,219.379498 360.9,217.579498 365.7,215.679498 C363.9,215.679498 362.2,215.679498 360.4,215.679498 C394.1,229.479498 427.8,243.379498 461.4,257.179498 C466.2,259.179498 471,261.079498 475.8,263.079498 C475.8,256.679498 475.8,250.179498 475.8,243.779498 C441.9,257.479498 408.1,271.079498 374.2,284.779498 C369.4,286.679498 364.5,288.679498 359.7,290.579498 C362.3,290.879498 364.8,291.279498 367.4,291.579498 C333.9,277.279498 300.4,262.979498 267,248.579498 C262.2,246.579498 257.5,244.479498 252.7,242.479498 C247.7,240.379498 242,240.979498 239,246.079498 C236.5,250.179498 237.5,257.479498 242.5,259.679498 Z" id="Path"></path>
            <polyline id="Path" points="246.1 251.479498 246.1 403.079498 363.1 438.779498 363.1 300.479498"></polyline>
            <path d="M236.3,251.679498 C236.3,295.879498 236.3,340.179498 236.3,384.379498 C236.3,390.579498 236.3,396.779498 236.3,402.979498 C236.3,407.479498 239.4,411.379498 243.6,412.579498 C277.7,422.979498 311.7,433.479498 345.8,443.879498 C350.6,445.379498 355.4,446.879498 360.3,448.279498 C366.5,450.179498 373,444.979498 373,438.679498 C373,398.479498 373,358.279498 373,318.079498 C373,312.279498 373,306.479498 373,300.679498 C373,287.779498 353,287.779498 353,300.679498 C353,340.879498 353,381.079498 353,421.279498 C353,427.079498 353,432.879498 353,438.679498 C357.2,435.479498 361.4,432.279498 365.7,429.079498 C331.6,418.679498 297.6,408.179498 263.5,397.779498 C258.7,396.279498 253.9,394.779498 249,393.379498 C251.4,396.579498 253.9,399.779498 256.3,402.979498 C256.3,358.779498 256.3,314.479498 256.3,270.279498 C256.3,264.079498 256.3,257.879498 256.3,251.679498 C256.3,238.779498 236.3,238.779498 236.3,251.679498 L236.3,251.679498 Z" id="Path"></path>
            <path d="M365.3,448.579498 C399,439.079498 432.7,429.579498 466.5,419.979498 C471.3,418.579498 476.1,417.279498 480.9,415.879498 C485.1,414.679498 488.2,410.679498 488.2,406.279498 C488.2,361.579498 488.2,316.979498 488.2,272.279498 C488.2,266.079498 488.2,259.879498 488.2,253.579498 C488.2,240.679498 468.2,240.679498 468.2,253.579498 C468.2,298.279498 468.2,342.879498 468.2,387.579498 C468.2,393.779498 468.2,399.979498 468.2,406.279498 C470.6,403.079498 473.1,399.879498 475.5,396.679498 C441.8,406.179498 408.1,415.679498 374.3,425.279498 C369.5,426.679498 364.7,427.979498 359.9,429.379498 C347.6,432.779498 352.9,452.079498 365.3,448.579498 L365.3,448.579498 Z" id="Path"></path>
            <path d="M6.2,259.679498 C40,274.179498 73.8,288.579498 107.6,303.079498 C112,304.979498 116.5,306.879498 120.9,308.779498 C127.2,311.479498 131.4,308.779498 137.1,306.379498 C157,298.379498 176.9,290.279498 196.9,282.279498 C212.9,275.879498 228.8,269.379498 244.8,262.979498 C254.3,259.179498 254.2,247.579498 244.8,243.679498 C211,229.779498 177.2,215.979498 143.5,202.079498 C139,200.179498 134.3,197.779498 129.6,196.379498 C125,194.979498 120.2,197.779498 116,199.479498 C96.2,207.179498 76.4,214.979498 56.6,222.679498 C40.6,228.979498 24.6,235.179498 8.6,241.479498 C3.6,243.479498 0.1,248.179498 1.6,253.779498 C2.9,258.579498 8.8,262.779498 13.9,260.779498 C47.6,247.579498 81.3,234.379498 115,221.279498 C119.8,219.379498 124.6,217.579498 129.4,215.679498 C127.6,215.679498 125.9,215.679498 124.1,215.679498 C157.8,229.479498 191.5,243.379498 225.1,257.179498 C229.9,259.179498 234.7,261.079498 239.5,263.079498 C239.5,256.679498 239.5,250.179498 239.5,243.779498 C205.6,257.479498 171.8,271.079498 137.9,284.779498 C133.1,286.679498 128.2,288.679498 123.4,290.579498 C126,290.879498 128.5,291.279498 131.1,291.579498 C97.6,277.279498 64.1,262.979498 30.7,248.579498 C25.9,246.579498 21.2,244.479498 16.4,242.479498 C11.4,240.379498 5.7,240.979498 2.7,246.079498 C0.2,250.179498 1.2,257.479498 6.2,259.679498 Z" id="Path"></path>
            <polyline id="Path" points="10.1 251.479498 10.1 403.079498 127.1 438.779498 127.1 300.479498"></polyline>
            <path d="M0,251.679498 C0,295.879498 0,340.179498 0,384.379498 C0,390.579498 0,396.779498 0,402.979498 C0,407.479498 3.1,411.379498 7.3,412.579498 C41.4,422.979498 75.4,433.479498 109.5,443.879498 C114.3,445.379498 119.1,446.879498 124,448.279498 C130.2,450.179498 136.7,444.979498 136.7,438.679498 C136.7,398.479498 136.7,358.279498 136.7,318.079498 C136.7,312.279498 136.7,306.479498 136.7,300.679498 C136.7,287.779498 116.7,287.779498 116.7,300.679498 C116.7,340.879498 116.7,381.079498 116.7,421.279498 C116.7,427.079498 116.7,432.879498 116.7,438.679498 C120.9,435.479498 125.1,432.279498 129.4,429.079498 C95.3,418.679498 61.3,408.179498 27.2,397.779498 C22.4,396.279498 17.6,394.779498 12.7,393.379498 C15.1,396.579498 17.6,399.779498 20,402.979498 C20,358.779498 20,314.479498 20,270.279498 C20,264.079498 20,257.879498 20,251.679498 C20,238.779498 0,238.779498 0,251.679498 L0,251.679498 Z" id="Path"></path>
            <path d="M129,448.579498 C162.7,439.079498 196.4,429.579498 230.2,419.979498 C235,418.579498 239.8,417.279498 244.6,415.879498 C248.8,414.679498 251.9,410.679498 251.9,406.279498 C251.9,361.579498 251.9,316.979498 251.9,272.279498 C251.9,266.079498 251.9,259.879498 251.9,253.579498 C251.9,240.679498 231.9,240.679498 231.9,253.579498 C231.9,298.279498 231.9,342.879498 231.9,387.579498 C231.9,393.779498 231.9,399.979498 231.9,406.279498 C234.3,403.079498 236.8,399.879498 239.2,396.679498 C205.5,406.179498 171.8,415.679498 138,425.279498 C133.2,426.679498 128.4,427.979498 123.6,429.379498 C111.3,432.779498 116.6,452.079498 129,448.579498 L129,448.579498 Z" id="Path"></path>
        </g>
    </g>
</svg>