<?xml version="1.0" encoding="UTF-8"?>
<svg width="92px" height="66px" viewBox="0 0 92 66" version="1.1" xmlns="http://www.w3.org/2000/svg" xmlns:xlink="http://www.w3.org/1999/xlink">
    <!-- Generator: Sketch 61.2 (89653) - https://sketch.com -->
    <title>Shape</title>
    <desc>Created with Sketch.</desc>
    <g id="Page-1" stroke="none" stroke-width="1" fill="none" fill-rule="evenodd">
        <path d="M60.053675,60.752435 C68.267114,64.16736 76.937308,66.961519 83.914176,64.713895 C86.288915,63.892461 93.915228,59.925514 90.127061,46.075276 C89.5728,47.985956 89.160102,49.981522 87.420459,51.180885 C87.090728,50.28135 86.825348,49.478298 86.343966,48.351248 C85.717912,52.058338 84.073503,53.09939 82.36183,53.62917 C81.728858,53.824835 81.054451,53.776414 80.563594,53.72071 C73.996177,52.968312 72.799379,39.849479 65.767643,35.864147 C60.027693,32.250355 53.642197,33.144095 45.999999,35.719073 C38.357799,33.10035 31.972304,32.206538 26.232354,35.820256 C19.200627,39.805513 18.00383,52.924333 11.4364,53.676732 C10.945525,53.736202 10.27114,53.781653 9.638173,53.585192 C7.926506,53.055488 6.282073,52.01436 5.6560307,48.307275 C5.1746763,49.434253 4.9092721,50.237298 4.5795408,51.136909 C2.839893,49.937485 2.4271729,47.941912 1.8729403,46.031232 C-1.9152313,59.881458 5.7110919,63.848488 8.085822,64.669921 C15.062697,66.917546 23.732882,64.123107 31.946323,60.708399 C38.284742,58.073076 43.65113,54.842735 45.999999,51.658217 C48.000886,54.886255 53.715254,58.116544 60.053675,60.751929 L60.053675,60.752435 Z M52.582745,17.903232 C56.143855,17.409025 64.622905,14.574719 70.895918,10.404216 C74.068536,8.031389 78.532281,5.469371 78.486856,4.356153 C78.455526,3.587767 76.554851,3.327253 72.718749,2.940508 C57.397163,3.037508 48.394709,5.021676 52.582731,17.903232 L52.582745,17.903232 Z M1.806036,2.398699 C9.896148,0.900823 17.884429,0.421264 25.76231,1.045684 C32.508752,1.961657 39.190427,2.926208 45.102428,4.468009 C53.247028,3.116862 61.391632,0.978161 69.536233,0.568153 C72.99636,0.331046 76.63515,0.540413 80.519509,1.364042 C83.714076,1.628665 87.28624,1.263991 89.911008,2.478287 C90.292018,3.980775 91.074305,4.954895 89.433473,8.049514 L87.682514,9.561704 C86.091877,14.017545 84.686543,18.28808 83.305121,22.534703 C81.466046,25.963836 79.258283,29.185581 74.072803,30.732366 C69.989302,31.620241 65.841663,32.123267 61.338571,30.493602 C59.385047,29.690523 57.889261,29.802914 54.334747,25.797852 C51.873201,22.216348 50.897152,18.634849 49.400229,15.053345 C47.643822,8.795399 43.913905,9.927707 41.998457,15.292109 C41.038404,19.180358 39.948249,23.042586 36.904767,26.514149 C34.989301,28.166331 33.505646,29.884944 28.945871,31.130309 C25.090051,31.667796 21.230077,32.159583 17.166704,30.414007 C15.122985,29.425876 13.124686,28.755655 10.879176,26.354972 C9.455502,24.674675 8.403406,22.622803 7.616031,20.30621 C6.418564,16.508838 5.2736179,12.763987 3.8753509,8.765815 L2.1243942,7.969925 C1.3940355,6.112848 1.4829819,4.255776 1.806036,2.398699 Z M9.924108,18.634845 C13.485218,18.133834 27.817172,14.165823 34.596686,10.516772 C36.356971,9.569304 38.955849,7.688924 38.735313,7.014857 C38.403984,6.002212 35.302667,4.234885 30.060115,3.672121 C23.440214,2.961505 13.006404,3.19676 9.764931,5.18431 C7.571992,6.528944 9.323629,18.634845 9.924094,18.634845 L9.924108,18.634845 Z" id="Shape" fill="currentColor" fill-rule="nonzero"></path>
    </g>
</svg>